<?xml version="1.0" standalone="no"?>
<svg xmlns="http://www.w3.org/2000/svg" width="800" height="640" style="isolation:isolate">
  <defs>
    <clipPath id="a">
      <path d="M0 0h800v640H0z"/>
    </clipPath>
  </defs>
  <g clip-path="url(#a)">
    <path fill="#f2f3f4" d="M0 0h800v640H0z"/>
    <path fill="#DDD" d="M520.007 272.516h33.598c32.999 0 44.395 9.599 44.395 41.99 0 32.39-11.875 42-44.395 42h-33.598v-83.99zm31.243 23.869v36.352h2.405c10.797 0 13.202-3.722 13.202-18.241 0-15.966-2.405-18.111-13.202-18.111h-2.405zm-102.28-23.869h31.193v56.379h32.4v27.601H448.97v-83.98zm-71.038 0h31.193v56.379h32.361v27.601h-63.554v-83.98zm-88.789 33.229c0-27.002 17.961-34.446 42-34.446 24.038 0 42 7.444 42 34.446v18.71c0 27.002-17.962 33.238-42 33.238-24.039 0-42-6.236-42-33.238v-18.71zm32.4 14.758c0 7.674.489 13.192 9.6 13.192 9.11 0 9.599-5.518 9.599-13.192v-11.974c0-7.674-.479-13.202-9.599-13.202-9.121 0-9.6 5.638-9.6 13.202v11.974zm-81.235 6.716h-2.635v29.277H206.47v-83.98h36.003c28.669 0 39.585 7.195 39.585 30.115 0 14.879-6.835 21.714-12.832 23.879l15.237 29.996h-34.316l-9.839-29.287zm-2.635-17.283h5.988c5.398 0 7.074-2.754 7.074-7.315 0-4.32-1.317-6.985-7.074-6.985h-5.988v14.3z"/>
  </g>
</svg>
